<svg width="21" height="18" viewBox="0 0 21 18" fill="none" xmlns="http://www.w3.org/2000/svg">
<path d="M11.4178 7.58169L2.28643 0.329139C1.84338 0.105966 1.31458 0.130152 0.892425 0.386306C0.468067 0.64136 0.211914 1.0965 0.211914 1.58462L0.211911 16.0941C0.211911 16.5811 0.468065 17.0352 0.892422 17.2913C1.12109 17.4299 1.38054 17.5002 1.64329 17.5002C1.86427 17.5002 2.08414 17.4496 2.28752 17.3485L11.4189 10.0938C11.8586 9.68039 12.206 9.37037 12.206 8.83717C12.206 8.30398 11.9103 8.01704 11.4178 7.58169Z" fill="#3F4651"/>
<path d="M20.2128 7.58169L11.0815 0.329139C10.6384 0.105966 10.1085 0.130152 9.68637 0.386306C9.26201 0.64136 9.00586 1.0965 9.00586 1.58462L9.00586 16.0941C9.00586 16.5811 9.26201 17.0352 9.68637 17.2913C9.91504 17.4299 10.1745 17.5002 10.4372 17.5002C10.6582 17.5002 10.8781 17.4496 11.0815 17.3485L20.2128 10.0938C20.6526 9.68039 21 9.37037 21 8.83717C21 8.30398 20.7054 8.01704 20.2128 7.58169Z" fill="#3F4651"/>
</svg>
