<svg width="179" height="41" viewBox="0 0 179 41" fill="none" xmlns="http://www.w3.org/2000/svg">
<path d="M158.319 0H113.518C107.799 0 102.625 2.2879 98.9036 6.01518C95.1438 9.74245 92.8359 14.8651 92.8359 20.5031C92.8359 31.8484 102.105 41 113.512 41H158.312C164.031 41 169.205 38.7121 172.927 35.0225C176.687 31.3015 178.995 26.1726 178.995 20.5031C179.001 9.18933 169.725 0 158.319 0ZM113.379 36.7259C104.42 36.7259 97.1093 29.4473 97.1093 20.4969C97.1093 11.5464 104.413 4.30553 113.379 4.30553C122.375 4.30553 129.68 11.5841 129.68 20.4969C129.68 29.4536 122.375 36.7259 113.379 36.7259ZM165.762 36.7636L159.936 32.3198L138.981 16.229V36.7636H133.154V4.4061L138.981 8.84992L159.936 24.9407V4.26782L165.762 4.29925V36.7636Z" fill="#FCFCFC"/>
<path d="M123.859 20.497C123.859 26.2733 119.174 30.9497 113.385 30.9182C107.628 30.9182 102.942 26.2733 102.942 20.497C102.942 14.7583 107.628 10.0757 113.385 10.0757C119.167 10.082 123.859 14.7583 123.859 20.497Z" fill="#FCFCFC"/>
<path d="M32.5385 4.29285V10.0817H19.1795V36.7321H13.3591V10.0817H0V4.28656H32.5385V4.29285Z" fill="#FCFCFC"/>
<path d="M59.3971 36.7321H52.8793L49.8993 30.9369L42.7791 17.0335L35.6589 30.9369L32.679 36.7321H26.1611L29.1411 30.9369L42.7791 4.28656L56.4172 30.9369L59.3971 36.7321Z" fill="#FCFCFC"/>
<path d="M63.3966 20.5093C63.3966 26.2542 68.0948 30.9369 73.8708 30.9369H84.345V23.4258H73.8708V17.6306H90.1654V36.7321H73.8708C64.8866 36.7321 57.5762 29.4598 57.5762 20.5093C57.5762 11.5651 64.8866 4.28656 73.8708 4.28656H90.1654V10.0817H73.8708C68.1011 10.0817 63.3966 14.7644 63.3966 20.5093Z" fill="#FCFCFC"/>
</svg>
