<svg width="20" height="19" viewBox="0 0 20 19" fill="none" xmlns="http://www.w3.org/2000/svg">
<path d="M3 18V6M17 0V4V0ZM17 18V8V18ZM10 0V12V0ZM10 18V16V18ZM3 0V2V0Z" stroke="#8D97A4" stroke-width="2" stroke-linecap="round"/>
<path d="M15 6C15 7.10457 15.8954 8 17 8C18.1046 8 19 7.10457 19 6C19 4.89543 18.1046 4 17 4C15.8954 4 15 4.89543 15 6Z" stroke="#8D97A4" stroke-width="2" stroke-linecap="round"/>
<path d="M8 14C8 15.1046 8.89543 16 10 16C11.1046 16 12 15.1046 12 14C12 12.8954 11.1046 12 10 12C8.89543 12 8 12.8954 8 14Z" stroke="#8D97A4" stroke-width="2" stroke-linecap="round"/>
<path d="M1 4C1 5.10457 1.89543 6 3 6C4.10457 6 5 5.10457 5 4C5 2.89543 4.10457 2 3 2C1.89543 2 1 2.89543 1 4Z" stroke="#8D97A4" stroke-width="2" stroke-linecap="round"/>
</svg>
