<svg width="18" height="14" viewBox="0 0 18 14" fill="none" xmlns="http://www.w3.org/2000/svg">
<path d="M16.5 0H14.4C13.8 0 13.4 0.5 13.4 1C13.4 1.5 12.9 2 12.4 2C11.8 2 11.4 1.5 11.4 1C11.4 0.5 10.9 0 10.4 0H7.7C7.1 0 6.7 0.5 6.7 1C6.7 1.5 6.2 2 5.7 2C5.1 2 4.7 1.5 4.7 1C4.7 0.5 4.2 0 3.7 0H1.5C1 0 0.5 0.5 0.5 1V12.8C0.5 13.4 1 13.8 1.5 13.8H16.5C17.1 13.8 17.5 13.3 17.5 12.8V1C17.5 0.5 17 0 16.5 0ZM4.9 4.7C5.7 4.7 6.4 5.4 6.4 6.2C6.4 7 5.8 7.7 4.9 7.7C4.1 7.7 3.5 7 3.5 6.2C3.5 5.4 4.1 4.7 4.9 4.7ZM7.4 10.5C7.4 10.7 7.2 10.9 7.1 10.9H2.8C2.6 10.9 2.5 10.7 2.5 10.5V10.1C2.5 9.4 3 8.9 3.6 8.9H6.4C7 8.9 7.5 9.4 7.5 10.1V10.5H7.4ZM14.4 10.2H9.8C9.4 10.2 9.2 9.9 9.2 9.6C9.2 9.2 9.5 9 9.8 9H14.4C14.8 9 15 9.3 15 9.6C15 9.9 14.8 10.2 14.4 10.2ZM14.4 7.6H9.8C9.4 7.6 9.2 7.3 9.2 7C9.2 6.6 9.5 6.4 9.8 6.4H14.4C14.8 6.4 15 6.7 15 7C15 7.3 14.8 7.6 14.4 7.6Z" fill="#77828F"/>
</svg>
