<svg width="18" height="16" viewBox="0 0 18 16" fill="none" xmlns="http://www.w3.org/2000/svg">
<path d="M15.7 0H2.4C1.4 0 0.5 0.9 0.5 1.9V13.8C0.5 14.9 1.4 15.7 2.4 15.7H15.7C16.8 15.7 17.6 14.8 17.6 13.8V1.9C17.6 0.9 16.8 0 15.7 0ZM6.2 1.7H8.1C8.5 1.7 8.8 2 8.8 2.4C8.8 2.8 8.5 3.1 8.1 3.1H6.2C5.8 3.1 5.5 2.8 5.5 2.4C5.5 2 5.8 1.7 6.2 1.7ZM3.4 1.4C3.9 1.4 4.4 1.8 4.4 2.4C4.4 3 4 3.4 3.4 3.4C2.8 3.4 2.4 3 2.4 2.4C2.4 1.8 2.8 1.4 3.4 1.4ZM15.7 13.3C15.7 13.6 15.5 13.8 15.2 13.8H2.9C2.6 13.8 2.4 13.6 2.4 13.3V5.2C2.4 4.9 2.6 4.7 2.9 4.7H15.3C15.6 4.7 15.8 4.9 15.8 5.2V13.3H15.7ZM13.6 6.3H8.8C8.5 6.3 8.2 6.6 8.2 6.9C8.2 7.2 8.5 7.5 8.8 7.5H13.6C13.9 7.5 14.2 7.2 14.2 6.9C14.2 6.6 13.9 6.3 13.6 6.3ZM13.6 8.7H8.8C8.5 8.7 8.2 8.9 8.2 9.3C8.2 9.7 8.5 9.9 8.8 9.9H13.6C13.9 9.9 14.2 9.6 14.2 9.3C14.2 9 13.9 8.7 13.6 8.7ZM13.6 11.1H4.5C4.2 11.1 3.9 11.4 3.9 11.7C3.9 12 4.2 12.3 4.5 12.3H13.5C13.8 12.3 14.1 12 14.1 11.7C14.2 11.3 13.9 11.1 13.6 11.1Z" fill="#015C8F"/>
</svg>
