<svg width="20" height="20" viewBox="0 0 20 20" fill="none" xmlns="http://www.w3.org/2000/svg">
<path fill-rule="evenodd" clip-rule="evenodd" d="M7.60039 2.80003C6.32735 2.80003 5.10645 3.30574 4.20628 4.20592C3.3061 5.10609 2.80039 6.32699 2.80039 7.60003C2.80039 8.87307 3.3061 10.094 4.20628 10.9941C5.10645 11.8943 6.32735 12.4 7.60039 12.4C8.87343 12.4 10.0943 11.8943 10.9945 10.9941C11.8947 10.094 12.4004 8.87307 12.4004 7.60003C12.4004 6.32699 11.8947 5.10609 10.9945 4.20592C10.0943 3.30574 8.87343 2.80003 7.60039 2.80003ZM0.400391 7.60003C0.400246 6.46687 0.667562 5.34968 1.1806 4.33932C1.69363 3.32895 2.4379 2.45395 3.35287 1.78546C4.26783 1.11697 5.32767 0.673883 6.44617 0.492228C7.56467 0.310573 8.71025 0.395482 9.78975 0.740049C10.8692 1.08462 11.8522 1.67911 12.6586 2.47518C13.465 3.27126 14.0721 4.24643 14.4306 5.32139C14.7891 6.39635 14.8888 7.54074 14.7216 8.66149C14.5544 9.78224 14.125 10.8477 13.4684 11.7712L19.2488 17.5516C19.4674 17.778 19.5883 18.0811 19.5856 18.3957C19.5829 18.7103 19.4567 19.0113 19.2342 19.2338C19.0117 19.4563 18.7107 19.5825 18.3961 19.5852C18.0814 19.588 17.7783 19.467 17.552 19.2484L11.7728 13.4692C10.6956 14.2352 9.42841 14.6898 8.11 14.7834C6.79159 14.8769 5.47288 14.6058 4.29835 13.9996C3.12382 13.3934 2.13881 12.4757 1.45126 11.3469C0.763703 10.218 0.400134 8.92175 0.400391 7.60003Z" fill="#8D97A4"/>
</svg>
