<svg width="20" height="20" viewBox="0 0 20 20" fill="none" xmlns="http://www.w3.org/2000/svg">
<path d="M13.7831 4.18722C15.0316 4.65432 16.1007 5.45591 16.8531 6.48909C17.6055 7.52226 18.0069 8.73988 18.0058 9.98562C18.0069 11.2313 17.6055 12.4488 16.853 13.4819C16.1006 14.515 15.0316 15.3165 13.7831 15.7835V17.0879C15.399 16.5957 16.8055 15.644 17.8021 14.3686C18.7986 13.0932 19.3343 11.5593 19.3327 9.98562C19.3327 6.67272 17.0074 3.86055 13.7831 2.87914V4.18722ZM13.7831 7.26679C14.208 7.6024 14.5489 8.0194 14.7824 8.48892C15.0159 8.95844 15.1362 9.46928 15.1352 9.98608C15.1363 10.5028 15.0159 11.0136 14.7825 11.4831C14.549 11.9525 14.208 12.3694 13.7831 12.7049V14.0321C15.2916 13.2243 16.3057 11.7146 16.3057 9.98608C16.306 9.16623 16.0731 8.36072 15.6303 7.65051C15.1875 6.94029 14.5505 6.35038 13.7831 5.94004V7.26679ZM2.17953 13.7232H6.21556L10.7561 18.8636C11.2606 19.5356 12.4411 19.4847 12.7741 18.7226V1.28686C12.365 0.525254 11.2914 0.46412 10.7561 1.10859L6.21556 6.26671H2.17953C0.887493 6.26671 0.666016 6.48185 0.666016 7.64993V12.3222C0.666016 13.4619 0.918268 13.7232 2.17953 13.7232Z" fill="white"/>
</svg>
